<svg xmlns="http://www.w3.org/2000/svg" aria-hidden="true" overflow="hidden" style="position:absolute;width:0;height:0">
  <defs>
    <symbol id="icon-business-card" viewBox="0 0 24 24">
      <path d="M20 20H4c-1.654 0-3-1.346-3-3V7c0-1.654 1.346-3 3-3h16c1.654 0 3 1.346 3 3v10c0 1.654-1.346 3-3 3zM4 6c-.551 0-1 .449-1 1v10c0 .551.449 1 1 1h16c.551 0 1-.449 1-1V7c0-.551-.449-1-1-1H4z"/>
      <path d="M10 15H6a1 1 0 1 1 0-2h4a1 1 0 1 1 0 2zm0-4H6a1 1 0 1 1 0-2h4a1 1 0 1 1 0 2zm8-.5a2 2 0 1 1-3.999.001A2 2 0 0 1 18 10.5zm-2 2.856c-1.562 0-2.5.715-2.5 1.429 0 .357.938.715 2.5.715 1.466 0 2.5-.357 2.5-.715 0-.714-.98-1.429-2.5-1.429z"/>
    </symbol>
    <symbol id="icon-banknote" viewBox="0 0 32 32">
      <path d="m31.415 10.586-10-10a2.002 2.002 0 0 0-3.326.822c-.453 1.469-1.236 2.746-2.395 3.904-1.548 1.547-3.564 2.719-5.697 3.958-2.264 1.312-4.603 2.672-6.52 4.588C1.848 15.489.739 17.303.089 19.409a2.002 2.002 0 0 0 .496 2.006l10 10a2.002 2.002 0 0 0 3.326-.824c.454-1.469 1.237-2.746 2.397-3.904 1.547-1.547 3.562-2.717 5.697-3.955 2.262-1.314 4.602-2.674 6.518-4.59 1.629-1.629 2.738-3.445 3.389-5.551a2.004 2.004 0 0 0-.497-2.005zM12 30 2 20c2.842-9.201 15.16-8.799 18-18l10.002 10C27.159 21.199 14.841 20.799 12 30zm7.562-15.1c-.326-.273-.654-.459-.984-.551a2.864 2.864 0 0 0-.988-.105 3.54 3.54 0 0 0-1 .229 13.73 13.73 0 0 0-1.014.438 56.818 56.818 0 0 0-1.611-1.793c.242-.219.477-.33.703-.338.227-.01.445.014.652.066.211.053.404.098.582.133a.538.538 0 0 0 .473-.119.664.664 0 0 0 .236-.482c.01-.197-.064-.389-.229-.576a1.293 1.293 0 0 0-.77-.443 2.377 2.377 0 0 0-.93.021c-.316.072-.617.191-.902.359s-.514.34-.684.508l-.195-.184a.376.376 0 0 0-.27-.1.35.35 0 0 0-.273.133.36.36 0 0 0-.092.285.36.36 0 0 0 .127.252c.065.055.13.109.195.166-.256.309-.467.65-.633 1.01a3.376 3.376 0 0 0-.305 1.066c-.039.35-.002.67.105.967.107.299.305.553.594.793.471.391 1.025.557 1.668.52.641-.039 1.332-.23 2.075-.629.59.682 1.182 1.359 1.773 1.988-.25.211-.469.332-.662.371a1.035 1.035 0 0 1-.521-.01 1.657 1.657 0 0 1-.434-.209 3.048 3.048 0 0 0-.395-.234c-.129-.064-.262-.1-.398-.102s-.281.064-.441.201c-.164.143-.246.309-.246.496s.086.375.254.566c.17.191.391.352.658.479s.569.207.901.229a2.5 2.5 0 0 0 1.051-.164c.371-.135.738-.379 1.1-.742.174.17.35.332.525.488a.36.36 0 0 0 .273.088.363.363 0 0 0 .27-.141.386.386 0 0 0 .094-.293.341.341 0 0 0-.125-.244 13.1 13.1 0 0 1-.527-.445c.299-.367.539-.754.717-1.137.178-.385.283-.756.318-1.1a1.965 1.965 0 0 0-.119-.941c-.112-.287-.311-.533-.596-.77zm-5.591.678a.971.971 0 0 1-.746-.291.733.733 0 0 1-.195-.322 1.004 1.004 0 0 1-.039-.418c.014-.15.059-.307.137-.465.074-.158.184-.316.324-.469a35.667 35.667 0 0 1 1.52 1.629c-.384.211-.718.324-1.001.336zm4.717 2.002c-.09.166-.193.314-.314.443a40.863 40.863 0 0 1-1.68-1.826c.143-.064.293-.131.455-.199s.324-.113.486-.141c.166-.025.33-.018.494.021.162.041.316.129.459.268.141.141.23.287.266.445.039.16.041.322.014.488a1.612 1.612 0 0 1-.18.501zm-3.971 4.6a.499.499 0 0 1 .668.742c-.016.016-.033.027-.051.041l.002.002a15.86 15.86 0 0 0-1.714 1.475 13.571 13.571 0 0 0-1.361 1.58l-.639.875a.47.47 0 0 1-.074.1.504.504 0 0 1-.71 0 .503.503 0 0 1-.066-.627l-.002-.002.684-.934c.427-.584.918-1.156 1.461-1.699a17.95 17.95 0 0 1 1.8-1.553h.002zm3.661-14.465c.506-.506.963-1.037 1.36-1.581l.664-.91a.504.504 0 1 1 .826.561l.002.002-.684.938a14.693 14.693 0 0 1-1.461 1.697 18.201 18.201 0 0 1-1.799 1.553l-.004-.002a.504.504 0 0 1-.699-.014.506.506 0 0 1 .117-.801c.588-.449 1.155-.92 1.678-1.443z"/>
    </symbol>
    <symbol id="icon-like" viewBox="0 0 32 32">
      <path d="M29.164 10.472c-1.25-.328-4.189-.324-8.488-.438.203-.938.25-1.784.25-3.286C20.926 3.16 18.312 0 16 0c-1.633 0-2.979 1.335-3 2.977-.022 2.014-.645 5.492-4 7.256-.246.13-.95.477-1.053.522L8 10.8c-.525-.453-1.253-.8-2-.8H3c-1.654 0-3 1.346-3 3v16c0 1.654 1.346 3 3 3h3c1.19 0 2.186-.719 2.668-1.727.012.004.033.01.047.012l.239.062.046.012c.576.143 1.685.408 4.055.953.508.116 3.192.688 5.972.688h5.467c1.666 0 2.867-.641 3.582-1.928.01-.02.24-.469.428-1.076a3.33 3.33 0 0 0 .023-1.76c1.074-.738 1.42-1.854 1.645-2.58.377-1.191.264-2.086.002-2.727.604-.57 1.119-1.439 1.336-2.766a3.757 3.757 0 0 0-.389-2.372c.566-.636.824-1.436.854-2.176l.012-.209c.007-.131.013-.212.013-.5 0-1.263-.875-2.874-2.836-3.434zM7 29a1 1 0 0 1-1 1H3a1 1 0 0 1-1-1V13a1 1 0 0 1 1-1h3a1 1 0 0 1 1 1v16zm22.977-14.465C29.957 15.029 29.75 16 28 16h-2a.5.5 0 1 0 0 1h1.938c1.5 0 1.697 1.244 1.6 1.844-.124.746-.474 2.156-2.163 2.156H25a.499.499 0 1 0 0 1h1.969c1.688 0 1.539 1.287 1.297 2.055-.319 1.009-.514 1.945-2.641 1.945h-1.631a.499.499 0 1 0 0 1h1.568c1.094 0 1.145 1.035 1.031 1.406-.125.406-.273.707-.279.721-.302.545-.789.873-1.82.873h-5.467c-2.746 0-5.47-.623-5.54-.639-4.154-.957-4.373-1.031-4.634-1.105 0 0-.846-.143-.846-.881L8 13.563c0-.469.299-.893.794-1.042.062-.024.146-.05.206-.075 4.568-1.892 5.959-6.04 6-9.446.006-.479.375-1 1-1 1.057 0 2.926 2.122 2.926 4.748 0 2.371-.096 2.781-.926 5.252 10 0 9.93.144 10.812.375 1.094.313 1.188 1.219 1.188 1.531 0 .343-.01.293-.023.629zM4.5 26a1.5 1.5 0 1 0 .001 3.001A1.5 1.5 0 0 0 4.5 26zm0 2c-.275 0-.5-.225-.5-.5s.225-.5.5-.5.5.225.5.5-.225.5-.5.5z"/>
    </symbol>
    <symbol id="icon-arrow-left" viewBox="0 0 52 32">
      <path stroke-width="2.909" d="M34.909.727c0 1.619 1.599 4.036 3.218 6.065 2.081 2.618 4.569 4.903 7.42 6.646 2.138 1.307 4.73 2.561 6.816 2.561m.001.001c-2.086 0-4.68 1.255-6.816 2.561-2.852 1.745-5.339 4.03-7.42 6.644-1.619 2.031-3.218 4.453-3.218 6.068M52.364 16H0"/>
    </symbol>
    <symbol id="icon-arrow-right" viewBox="0 0 52 32">
      <path stroke-width="2.909" d="M17.455.727c0 1.619-1.599 4.036-3.218 6.065-2.081 2.618-4.569 4.903-7.42 6.646-2.138 1.307-4.73 2.561-6.816 2.561M0 16c2.086 0 4.68 1.255 6.816 2.561 2.852 1.745 5.339 4.03 7.42 6.644 1.619 2.031 3.218 4.453 3.218 6.068M0 16h52.364"/>
    </symbol>
    <symbol id="icon-tik-tok" viewBox="0 0 27 32">
      <path d="M14.358 1.738c1.559-.024 3.107-.012 4.655-.024.095 1.821.75 3.679 2.083 4.964 1.333 1.321 3.214 1.929 5.047 2.131v4.798c-1.714-.06-3.44-.417-5-1.155-.679-.31-1.309-.702-1.928-1.107-.012 3.476.012 6.952-.024 10.417-.095 1.667-.643 3.321-1.607 4.69-1.559 2.286-4.262 3.774-7.035 3.821-1.702.095-3.405-.369-4.857-1.226-2.405-1.417-4.095-4.012-4.345-6.798a21.899 21.899 0 0 1-.012-1.774 8.933 8.933 0 0 1 3.071-5.905c1.976-1.714 4.738-2.536 7.321-2.048.024 1.762-.048 3.524-.048 5.286-1.179-.381-2.559-.274-3.595.44a4.136 4.136 0 0 0-1.619 2.083c-.25.607-.179 1.274-.167 1.917.286 1.952 2.167 3.595 4.166 3.417 1.333-.012 2.607-.786 3.297-1.917.226-.393.476-.798.488-1.262.119-2.131.071-4.25.083-6.381.012-4.798-.012-9.583.024-14.369z"/>
    </symbol>
    <symbol id="icon-arrow-down" viewBox="0 0 32 32">
      <path d="M16.943 20.943a1.333 1.333 0 0 1-1.886 0L7.514 13.4a1.339 1.339 0 0 1-.308-1.464 1.342 1.342 0 0 1 .729-.729 1.324 1.324 0 0 1 1.031.009c.163.07.31.171.433.299l6.6 6.6 6.6-6.6a1.332 1.332 0 0 1 1.869.016 1.33 1.33 0 0 1 .017 1.869l-7.543 7.543z"/>
    </symbol>
    <symbol id="icon-arrow-up" viewBox="0 0 32 32">
      <path d="M15.057 11.057a1.333 1.333 0 0 1 1.886 0l7.543 7.543a1.332 1.332 0 0 1-.016 1.869 1.33 1.33 0 0 1-1.869.017l-6.6-6.6-6.6 6.6a1.332 1.332 0 0 1-2.259-.948 1.335 1.335 0 0 1 .374-.938l7.543-7.543z"/>
    </symbol>
    <symbol id="icon-arrow-narrow-left" viewBox="0 0 32 32">
      <path stroke-linecap="round" stroke-linejoin="round" stroke-width="2" d="M26.667 16H5.334m7.999 8-8-8 8-8"/>
    </symbol>
    <symbol id="icon-arrow-narrow-right" viewBox="0 0 32 32">
      <path stroke-linecap="round" stroke-linejoin="round" stroke-width="2" d="M5.333 16h21.333m-7.999-8 8 8-8 8"/>
    </symbol>
    <symbol id="icon-facebook" viewBox="0 0 32 32">
      <path d="M21.333 5.333H24V0c-.504-.069-1.981 0-4 0-4.212 0-8 3.135-8 8v4H8v5.333h4V32h6.667V17.333h4L24 12h-5.333V8c.001-1.642.376-2.667 2.667-2.667z"/>
    </symbol>
    <symbol id="icon-instagram" viewBox="0 0 32 32">
      <path d="M31.969 9.408c-.075-1.7-.35-2.869-.744-3.882a7.803 7.803 0 0 0-1.85-2.838A7.867 7.867 0 0 0 26.543.844C25.524.45 24.361.175 22.661.1 20.948.019 20.404 0 16.06 0s-4.888.019-6.595.094c-1.7.075-2.869.35-3.882.744a7.803 7.803 0 0 0-2.838 1.85A7.867 7.867 0 0 0 .901 5.52C.507 6.539.232 7.702.157 9.402c-.081 1.713-.1 2.257-.1 6.601s.019 4.888.094 6.595c.075 1.7.35 2.869.744 3.882a7.895 7.895 0 0 0 1.85 2.838 7.867 7.867 0 0 0 2.832 1.844c1.019.394 2.182.669 3.882.744 1.706.075 2.25.094 6.595.094s4.888-.019 6.595-.094c1.7-.075 2.869-.35 3.882-.744a8.181 8.181 0 0 0 4.682-4.682c.394-1.019.669-2.182.744-3.882.075-1.707.094-2.25.094-6.595s-.006-4.888-.081-6.595zm-2.882 13.065c-.069 1.563-.331 2.407-.55 2.969a5.31 5.31 0 0 1-3.038 3.038c-.563.219-1.413.481-2.969.55-1.688.075-2.194.094-6.464.094s-4.782-.019-6.464-.094c-1.563-.069-2.407-.331-2.969-.55a4.926 4.926 0 0 1-1.838-1.194 4.974 4.974 0 0 1-1.194-1.838c-.219-.563-.481-1.413-.55-2.969-.075-1.688-.094-2.194-.094-6.464s.019-4.782.094-6.464c.069-1.563.331-2.407.55-2.969a4.868 4.868 0 0 1 1.2-1.838A4.974 4.974 0 0 1 6.639 3.55c.563-.219 1.413-.481 2.969-.55 1.688-.075 2.194-.094 6.464-.094 4.276 0 4.782.019 6.464.094 1.563.069 2.407.331 2.969.55a4.914 4.914 0 0 1 1.838 1.194 4.974 4.974 0 0 1 1.194 1.838c.219.563.481 1.413.55 2.969.075 1.688.094 2.194.094 6.464s-.019 4.77-.094 6.458z"/>
      <path d="M16.059 7.783c-4.538 0-8.22 3.682-8.22 8.22s3.682 8.22 8.22 8.22c4.539 0 8.22-3.682 8.22-8.22s-3.682-8.22-8.22-8.22zm0 13.552a5.333 5.333 0 0 1 0-10.664 5.333 5.333 0 0 1 0 10.664zM26.524 7.458a1.919 1.919 0 1 1-3.838 0 1.919 1.919 0 0 1 3.838 0z"/>
    </symbol>
    <symbol id="icon-threads" viewBox="0 0 32 32">
      <path d="M23.858 17.227c-.439-.35-.709-2.34-1.21-2.594-.411-3.875-2.535-4.834-3.699-5.223-2.53-.845-6.324-.897-7.712 1.07-.078.111-.005 1.147-.035 1.28-.023-.134-.03.132 0 0 .046.27-.259 1.121-.035 1.28-.27.046.224.158 0 0 .134-.023 1.165.107 1.28.035s-.043-1.169.035-1.28c.855-1.213 3.504-1.688 5.153-1.14 1.273.423 2.097 1.235 2.489 2.629-.647-.142-.618-.018-1.279-.035-1.795-.049-5.156.298-6.433 1.105-1.503.958-1.373 3.404-1.419 5.083-.073 2.659.881 5.146 3.699 5.223.829.017 3.104-.867 3.873-1.175s.725-.661 1.315-1.245c.854-.843 2.39-1.354 2.664-3.769-.045-.036.048.035 0 0 1.277 1.023 1.222 2.153 1.175 3.874-.068 2.501-3.465 5.027-9.096 4.874-3.448-.094-4.861-.394-6.328-2.734-1.204-1.915-1.163-4.32-1.07-7.712s.218-7.075 1.524-8.922c1.592-2.256 3.02-2.479 6.467-2.384 4.247.116 8.869.558 10.131 4.118.044.129-.125 1.177-.035 1.28-.123-.06.09.102 0 0-.136-.008.123.06 0 0 .136.008 1.151.081 1.279.035-.101.092.129-.046 0 0 .101-.092-.023-1.156.035-1.28-.006.137.058-.124 0 0 .006-.137.047.128 0 0-1.531-4.335-6.285-6.574-11.341-6.712-4.127-.113-5.788.804-7.782 3.629-1.545 2.19-2.734 6.358-2.838 10.166s.891 6.755 2.315 9.027c1.837 2.929 3.445 3.935 7.572 4.048 3.878.106 7.638-1.109 9.026-2.315 1.705-1.481 2.646-3.111 2.699-5.048.065-2.369-.636-3.76-2.419-5.188zm-5.223 3.699c-.391.389-.803 1.039-1.314 1.245s-2.008-.06-2.559-.07c-1.394-.038-2.537-.882-2.489-2.629.045-1.631 3.061-2.477 6.467-2.384.767.019.547-.195 1.28.035-.05 1.819-.393 2.827-1.384 3.804z"/>
    </symbol>
    <symbol id="icon-telegram" viewBox="0 0 32 32">
      <path d="m29.248 6.893-4.04 18.913c-.301 1.332-1.075 1.632-2.192 1.031l-6.06-4.469-2.967 2.836c-.3.301-.601.603-1.289.603l.473-6.233L24.477 9.302c.472-.473-.129-.645-.731-.257L9.691 17.898 3.63 16.05c-1.332-.429-1.332-1.333.301-1.933l23.553-9.156c1.16-.344 2.149.259 1.763 1.933z"/>
    </symbol>
    <symbol id="icon-youtube" viewBox="0 0 32 32">
      <path d="M30.667 12c.065-1.82-.477-3.708-1.333-5.333-.581-.667-1.775-1.179-2.667-1.333-3.686-.322-6.966-.059-10.667 0-3.687-.06-6.993-.314-10.667 0-.726.127-2.131.846-2.667 1.333-1.192 1.055-1.201 2.474-1.333 4-.193 2.744-.193 6.59 0 9.333.039.859-.225 1.835 0 2.667.16.642.876.84 1.333 1.333.54.513 1.92 1.2 2.667 1.333 2.856.339 5.123.06 8 0 4.637.064 8.524.356 13.333 0 .764-.127 2.111-.814 2.667-1.333.371-.357-.161-.854 0-1.333.473-1.396 1.35-2.533 1.333-4 .053-.712 0-5.904 0-6.667zm-17.334 6.667v-8l8 4c-2.199 1.17-5.258 2.576-8 4z"/>
    </symbol>
    <symbol id="icon-x" viewBox="0 0 32 32">
      <path stroke-linecap="round" stroke-linejoin="round" stroke-width="2.286" d="M24 8 8 24M8 8l16 16"/>
    </symbol>
  </defs>
</svg>
